PathFileType	4	(X/Y/Z)	/Users/itak/Documents/Research/Walk-IL/dataset/trc/00325_00011.trc
DataRate	CameraRate	NumFrames	NumMarkers	Units	OrigDataRate	OrigDataStartFrame	OrigNumFrames
100.000000	100.000000	4	54	mm	100.000000	162	433
Frame#	Time	RPSI			LPSI			L3			STRN			T10			C7			CLAV			RBAK			LBAK			LSHO			LUPA			LAEL			LAOL			LWPS			LFRA			LIFD			LHPS			LHTS			RSHO			RUPA			RAEL			RAOL			RWTS			RWPS			RFRA			RIFD			RHTS			RHPS			RBHD			LFHD			RFHD			LBHD			LHIP			RHIP			RASI			LASI			LKNE			LTHI			LANK			LTIP			LTOE			LMT1			LMT5			LHEE			RKNE			RANK			RTIP			RTOE			RMT1			RMT5			RHEE			LWTS			RTHI			*53			
		X1	Y1	Z1	X2	Y2	Z2	X3	Y3	Z3	X4	Y4	Z4	X5	Y5	Z5	X6	Y6	Z6	X7	Y7	Z7	X8	Y8	Z8	X9	Y9	Z9	X10	Y10	Z10	X11	Y11	Z11	X12	Y12	Z12	X13	Y13	Z13	X14	Y14	Z14	X15	Y15	Z15	X16	Y16	Z16	X17	Y17	Z17	X18	Y18	Z18	X19	Y19	Z19	X20	Y20	Z20	X21	Y21	Z21	X22	Y22	Z22	X23	Y23	Z23	X24	Y24	Z24	X25	Y25	Z25	X26	Y26	Z26	X27	Y27	Z27	X28	Y28	Z28	X29	Y29	Z29	X30	Y30	Z30	X31	Y31	Z31	X32	Y32	Z32	X33	Y33	Z33	X34	Y34	Z34	X35	Y35	Z35	X36	Y36	Z36	X37	Y37	Z37	X38	Y38	Z38	X39	Y39	Z39	X40	Y40	Z40	X41	Y41	Z41	X42	Y42	Z42	X43	Y43	Z43	X44	Y44	Z44	X45	Y45	Z45	X46	Y46	Z46	X47	Y47	Z47	X48	Y48	Z48	X49	Y49	Z49	X50	Y50	Z50	X51	Y51	Z51	X52	Y52	Z52	X53	Y53	Z53	X54	Y54	Z54	

163	1.62	-1194.708374023438	944.740234375	127.4079895019531	-1188.724609375	943.5252075195312	-2.122364521026611	-1192.86865234375	1004.048522949219	77.59932708740234	-938.48779296875	1165.208129882812	64.41487884521484	-1194.599365234375	1124.261596679688	84.55465698242188	-1120.896240234375	1364.576049804688	68.89883422851562	-971.3612060546875	1292.785278320312	62.66623306274414	-1178.635131835938	1231.378295898438	142.3443603515625	-1143.638793945312	1329.57177734375	-31.18323135375977	-1061.559326171875	1336.173583984375	-94.89296722412109	-1115.899536132812	1225.886474609375	-156.2683410644531	-1165.804565429688	1027.053344726562	-159.5686492919922	-1214.987426757812	1033.978515625	-91.02170562744141	-1210.251953125	771.3153686523438	-171.8960418701172	-1189.328491210938	925.085205078125	-165.4767761230469	-1225.3095703125	613.8090209960938	-113.4899368286133	-1241.493896484375	708.0942993164062	-163.6840667724609	-1186.315063476562	687.8446655273438	-137.2539672851562	-1053.858276367188	1345.12158203125	228.0633239746094	-1059.650634765625	1280.642456054688	293.7775268554688	-1019.26220703125	1018.6142578125	345.8150329589844	-1074.196899414062	998.3646240234375	269.6675109863281	-882.8046875	809.636962890625	286.8795471191406	-903.1041259765625	790.7836303710938	357.884765625	-982.4637451171875	955.27001953125	352.5353698730469	-831.0562744140625	644.6951904296875	295.5338134765625	-832.4213256835938	717.977294921875	297.2478942871094	-872.4589233398438	711.8980102539062	353.6287536621094	-1071.00830078125	1556.283813476562	146.34619140625	-912.7633666992188	1575.280395507812	10.32885646820068	-912.88525390625	1576.48388671875	111.6680145263672	-1097.649780273438	1547.809326171875	3.777688026428223	-1106.221557617188	883.236083984375	-94.68354797363281	-1134.626953125	876.8073120117188	241.2850189208984	-1021.446105957031	894.5333862304688	214.4030151367188	-983.1407470703125	906.4342651367188	-22.42145347595215	-864.5357666015625	473.2881164550781	-54.08612823486328	-929.5469970703125	594.6865844726562	-85.54389190673828	-825.0462036132812	43.37995910644531	-12.49973201751709	-839.8264770507812	252.0004272460938	-47.66741180419922	-625.3577270507812	101.0156860351562	27.42794227600098	-683.3526611328125	74.62700653076172	75.8172607421875	-704.4815063476562	67.70064544677734	-35.89408111572266	-851.9987182617188	38.78050231933594	58.20669555664062	-1223.630859375	434.8675842285156	202.5782470703125	-1434.4453125	72.95565032958984	145.4245147705078	-1261.864135742188	318.1199035644531	179.2969818115234	-1250.687377929688	45.45634841918945	84.03021240234375	-1307.497314453125	43.51927947998047	44.06009292602539	-1336.544921875	43.37432479858398	158.1948089599609	-1486.033325195312	89.79070281982422	100.4087753295898	-1162.888061523438	763.0821533203125	-121.4036102294922	-1113.50927734375	667.9332275390625	238.9207458496094	nan	nan	nan	
164	1.63	-1184.994995117188	944.1824340820312	126.8119277954102	-1179.095458984375	942.895751953125	-2.635079145431519	-1183.37841796875	1003.064758300781	77.01705169677734	-929.176513671875	1164.804077148438	63.90568161010742	-1185.380249023438	1123.369262695312	83.82891845703125	-1112.134765625	1363.84619140625	68.18898010253906	-962.3605346679688	1292.363647460938	62.14229583740234	-1169.708129882812	1230.488037109375	141.4062652587891	-1134.671875	1328.823852539062	-31.93316459655762	-1052.536376953125	1335.573974609375	-95.59342193603516	-1106.730346679688	1225.053833007812	-156.8104705810547	-1156.608520507812	1026.18701171875	-159.3768005371094	-1205.598754882812	1033.266235351562	-90.69940185546875	-1201.9921875	770.68896484375	-171.2721405029297	-1180.378784179688	924.3569946289062	-165.0547332763672	-1218.866455078125	613.51171875	-112.2613983154297	-1233.869750976562	707.75048828125	-162.9388885498047	-1178.97314453125	687.171630859375	-136.2169952392578	-1045.286865234375	1344.2890625	227.4927215576172	-1051.334228515625	1279.716796875	293.1104125976562	-1011.792907714844	1017.588562011719	345.1305541992188	-1066.441650390625	997.5175170898438	268.7852478027344	-875.6878662109375	808.2597045898438	287.2193603515625	-896.4601440429688	789.5004272460938	358.1057434082031	-975.2603759765625	954.1793212890625	352.1631164550781	-824.2762451171875	643.2548828125	296.4269409179688	-825.547119140625	716.5658569335938	298.03173828125	-865.873779296875	710.6347045898438	354.1413879394531	-1062.6376953125	1555.544311523438	146.2975616455078	-904.297607421875	1575.02197265625	10.48745822906494	-904.53173828125	1575.899047851562	111.8373870849609	-1089.185546875	1547.507202148438	3.700316667556763	-1096.434448242188	882.6754150390625	-95.16028594970703	-1125.173706054688	876.3724975585938	241.0547027587891	-1011.811340332031	893.93115234375	214.0318756103516	-973.5203857421875	905.8300170898438	-22.7918643951416	-855.577392578125	472.4196166992188	-53.42498397827148	-919.9647216796875	594.2085571289062	-85.54702758789062	-822.5852661132812	43.00745010375977	-10.58896923065186	-833.9050903320312	250.4943389892578	-45.85049057006836	-622.0821533203125	96.38936614990234	30.41064453125	-680.6179809570312	70.77775573730469	78.44451141357422	-701.4308471679688	64.96360015869141	-33.34197998046875	-849.7874145507812	38.23221969604492	60.01447677612305	-1217.152221679688	435.6727905273438	203.2740936279297	-1432.794921875	75.98820495605469	146.7055358886719	-1256.856689453125	319.2503967285156	180.1956329345703	-1250.343383789062	45.55514907836914	84.41729736328125	-1307.104125976562	44.44516372680664	44.46814727783203	-1335.630004882812	43.62031555175781	158.8598022460938	-1484.133911132812	94.35564422607422	101.9428405761719	-1154.9794921875	762.1719360351562	-120.5065765380859	-1105.08935546875	667.7425537109375	239.1855010986328	nan	nan	nan	
165	1.64	-1174.8935546875	943.8197021484375	126.2462692260742	-1169.122924804688	942.5509643554688	-3.133678436279297	-1173.511352539062	1002.244812011719	76.49136352539062	-919.70703125	1164.626098632812	63.32400512695312	-1175.853759765625	1122.655883789062	83.10313415527344	-1103.182250976562	1363.323852539062	67.40117645263672	-953.1372680664062	1292.230224609375	61.50629425048828	-1160.462524414062	1229.770629882812	140.3879547119141	-1125.518798828125	1328.271850585938	-32.74929809570312	-1043.348510742188	1335.22216796875	-96.37531280517578	-1097.355834960938	1224.450805664062	-157.4325103759766	-1147.084838867188	1025.532836914062	-159.2535705566406	-1195.841674804688	1032.693603515625	-90.42619323730469	-1193.163696289062	770.218505859375	-170.7824401855469	-1171.023193359375	923.8155517578125	-164.7417602539062	-1211.541259765625	613.3445434570312	-111.1866226196289	-1225.594482421875	707.5333862304688	-162.3031158447266	-1170.932495117188	686.6631469726562	-135.3819580078125	-1036.466674804688	1343.73828125	226.8152008056641	-1042.76806640625	1279.083740234375	292.3554077148438	-1004.300903320312	1016.814758300781	344.3001708984375	-1058.639526367188	996.9960327148438	267.7286987304688	-868.779052734375	806.951416015625	287.4851684570312	-890.108642578125	788.3328247070312	358.2791442871094	-968.1265258789062	953.3085327148438	351.664794921875	-817.97998046875	641.8062133789062	297.3163452148438	-819.0606079101562	715.1356201171875	298.7958679199219	-859.7224731445312	709.4202880859375	354.6260681152344	-1054.125122070312	1555.049560546875	146.1445159912109	-895.6853637695312	1575.045166015625	10.61053466796875	-896.046875	1575.569458007812	111.9747924804688	-1080.573486328125	1547.526123046875	3.568747043609619	-1086.328979492188	882.4085083007812	-95.68586730957031	-1115.301147460938	876.087646484375	240.7920074462891	-1001.785217285156	893.4783935546875	213.5998077392578	-963.5933227539062	905.5029907226562	-23.2158317565918	-846.4901733398438	471.7615661621094	-52.65811920166016	-910.219482421875	593.9005126953125	-85.35324859619141	-820.755859375	42.8631477355957	-9.034432411193848	-828.1226806640625	249.1671600341797	-44.07948684692383	-619.5010986328125	91.37311553955078	34.01447677612305	-678.8466186523438	66.57401275634766	81.36484527587891	-698.8831176757812	62.27200698852539	-30.56389427185059	-848.464111328125	37.86364364624023	61.34873199462891	-1210.066772460938	436.5611267089844	203.9765777587891	-1430.809326171875	79.34103393554688	148.0821685791016	-1251.331665039062	320.5361938476562	181.1388549804688	-1249.967041015625	45.65640640258789	84.80722808837891	-1306.592163085938	45.4548454284668	44.93159484863281	-1334.559448242188	43.88479995727539	159.5617218017578	-1481.848876953125	99.35163879394531	103.644172668457	-1146.407470703125	761.451416015625	-119.839714050293	-1096.135131835938	667.6632690429688	239.4142456054688	nan	nan	nan	
166	1.65	-1164.427001953125	943.65771484375	125.7229690551758	-1158.838623046875	942.501708984375	-3.621856451034546	-1163.27099609375	1001.611511230469	76.01833343505859	-910.051025390625	1164.709106445312	62.67068099975586	-1166.020141601562	1122.142700195312	82.37699890136719	-1094.033203125	1363.0322265625	66.55168914794922	-943.6904907226562	1292.400390625	60.76883697509766	-1150.890869140625	1229.245849609375	139.2985534667969	-1116.176879882812	1327.93896484375	-33.62078857421875	-1033.988403320312	1335.131103515625	-97.22642517089844	-1087.767211914062	1224.0859375	-158.1262359619141	-1137.221313476562	1025.099487304688	-159.2135925292969	-1185.7216796875	1032.272583007812	-90.22674560546875	-1183.758178710938	769.9080200195312	-170.4378509521484	-1161.254150390625	923.4653930664062	-164.5523223876953	-1203.311157226562	613.3062744140625	-110.2890548706055	-1216.653198242188	707.441162109375	-161.7832183837891	-1162.176635742188	686.3012084960938	-134.7430877685547	-1027.389282226562	1343.491088867188	226.0458374023438	-1033.944213867188	1278.75537109375	291.5295104980469	-996.7901611328125	1016.308044433594	343.3362731933594	-1050.759521484375	996.807373046875	266.4916076660156	-862.0748291015625	805.7335815429688	287.6846923828125	-884.0603637695312	787.3011474609375	358.3982543945312	-961.0714721679688	952.6698608398438	351.0515441894531	-812.1829223632812	640.3635864257812	298.1997375488281	-812.939697265625	713.7109375	299.5377502441406	-854.0119018554688	708.2753295898438	355.0755920410156	-1045.477294921875	1554.81787109375	145.8934936523438	-886.9365234375	1575.37646484375	10.69817924499512	-887.4363403320312	1575.527709960938	112.0798492431641	-1071.819702148438	1547.870239257812	3.385114669799805	-1075.927001953125	882.4510498046875	-96.2568359375	-1104.99462890625	875.9600219726562	240.4770202636719	-991.38623046875	893.1845092773438	213.1025848388672	-953.37060546875	905.4633178710938	-23.69873809814453	-837.259765625	471.3385314941406	-51.78726577758789	-900.3530883789062	593.7332153320312	-84.90467834472656	-819.28466796875	42.92660903930664	-7.873831748962402	-822.309326171875	248.090576171875	-42.43537139892578	-617.3709106445312	86.16438293457031	38.04634857177734	-677.767333984375	62.21928405761719	84.42649078369141	-696.6104125976562	59.69629287719727	-27.68087196350098	-847.7039794921875	37.72159957885742	62.19499588012695	-1202.304077148438	437.5104675292969	204.6612701416016	-1428.4306640625	83.01643371582031	149.5402526855469	-1245.228637695312	321.9605102539062	182.1069183349609	-1249.556884765625	45.75628280639648	85.19553375244141	-1305.947387695312	46.529052734375	45.45299911499023	-1333.308715820312	44.16418075561523	160.2984466552734	-1479.109985351562	104.7859573364258	105.5034790039062	-1137.162353515625	760.9353637695312	-119.4105453491211	-1086.616088867188	667.6903076171875	239.5779266357422	nan	nan	nan	
